<?xml version="1.0" encoding="UTF-8" standalone="no"?>
<!DOCTYPE svg PUBLIC "-//W3C//DTD SVG 1.1//EN"
 "http://www.w3.org/Graphics/SVG/1.1/DTD/svg11.dtd">
<!-- Generated by graphviz version 7.0.0 (20221023.0053)
 -->
<!-- Title: dependency&#45;cruiser output Pages: 1 -->
<svg width="839pt" height="434pt"
 viewBox="0.00 0.00 839.00 434.00" xmlns="http://www.w3.org/2000/svg" xmlns:xlink="http://www.w3.org/1999/xlink">
<g id="graph0" class="graph" transform="scale(1 1) rotate(0) translate(4 430)">
<title>dependency&#45;cruiser output</title>
<polygon fill="white" stroke="none" points="-4,4 -4,-430 835,-430 835,4 -4,4"/>
<g id="clust1" class="cluster">
<title>cluster_src</title>
<path fill="#ffffff" stroke="black" stroke-width="2" d="M20,-8C20,-8 811,-8 811,-8 817,-8 823,-14 823,-20 823,-20 823,-406 823,-406 823,-412 817,-418 811,-418 811,-418 20,-418 20,-418 14,-418 8,-412 8,-406 8,-406 8,-20 8,-20 8,-14 14,-8 20,-8"/>
<text text-anchor="middle" x="415.5" y="-406.8" font-family="Helvetica,sans-Serif" font-weight="bold" font-size="9.00">src</text>
</g>
<g id="clust2" class="cluster">
<title>cluster_src/data</title>
<path fill="#ffffff" stroke="black" stroke-width="2" d="M160,-76C160,-76 717,-76 717,-76 723,-76 729,-82 729,-88 729,-88 729,-164 729,-164 729,-170 723,-176 717,-176 717,-176 160,-176 160,-176 154,-176 148,-170 148,-164 148,-164 148,-88 148,-88 148,-82 154,-76 160,-76"/>
<text text-anchor="middle" x="438.5" y="-164.8" font-family="Helvetica,sans-Serif" font-weight="bold" font-size="9.00">data</text>
</g>
<g id="clust3" class="cluster">
<title>cluster_src/data/dataSource</title>
<path fill="#ffffff" stroke="black" stroke-width="2" d="M420.5,-84C420.5,-84 709,-84 709,-84 715,-84 721,-90 721,-96 721,-96 721,-138 721,-138 721,-144 715,-150 709,-150 709,-150 420.5,-150 420.5,-150 414.5,-150 408.5,-144 408.5,-138 408.5,-138 408.5,-96 408.5,-96 408.5,-90 414.5,-84 420.5,-84"/>
<text text-anchor="middle" x="564.75" y="-138.8" font-family="Helvetica,sans-Serif" font-weight="bold" font-size="9.00">dataSource</text>
</g>
<g id="clust4" class="cluster">
<title>cluster_src/data/repository</title>
<path fill="#ffffff" stroke="black" stroke-width="2" d="M238,-96C238,-96 380,-96 380,-96 386,-96 392,-102 392,-108 392,-108 392,-136 392,-136 392,-142 386,-148 380,-148 380,-148 238,-148 238,-148 232,-148 226,-142 226,-136 226,-136 226,-108 226,-108 226,-102 232,-96 238,-96"/>
<text text-anchor="middle" x="309" y="-136.8" font-family="Helvetica,sans-Serif" font-weight="bold" font-size="9.00">repository</text>
</g>
<g id="clust5" class="cluster">
<title>cluster_src/domain</title>
<path fill="#ffffff" stroke="black" stroke-width="2" d="M538,-194C538,-194 803,-194 803,-194 809,-194 815,-200 815,-206 815,-206 815,-268 815,-268 815,-274 809,-280 803,-280 803,-280 538,-280 538,-280 532,-280 526,-274 526,-268 526,-268 526,-206 526,-206 526,-200 532,-194 538,-194"/>
<text text-anchor="middle" x="670.5" y="-268.8" font-family="Helvetica,sans-Serif" font-weight="bold" font-size="9.00">domain</text>
</g>
<g id="clust6" class="cluster">
<title>cluster_src/domain/model</title>
<path fill="#ffffff" stroke="black" stroke-width="2" d="M749,-202C749,-202 795,-202 795,-202 801,-202 807,-208 807,-214 807,-214 807,-242 807,-242 807,-248 801,-254 795,-254 795,-254 749,-254 749,-254 743,-254 737,-248 737,-242 737,-242 737,-214 737,-214 737,-208 743,-202 749,-202"/>
<text text-anchor="middle" x="772" y="-242.8" font-family="Helvetica,sans-Serif" font-weight="bold" font-size="9.00">model</text>
</g>
<g id="clust7" class="cluster">
<title>cluster_src/domain/repository</title>
<path fill="#ffffff" stroke="black" stroke-width="2" d="M653.5,-202C653.5,-202 699.5,-202 699.5,-202 705.5,-202 711.5,-208 711.5,-214 711.5,-214 711.5,-242 711.5,-242 711.5,-248 705.5,-254 699.5,-254 699.5,-254 653.5,-254 653.5,-254 647.5,-254 641.5,-248 641.5,-242 641.5,-242 641.5,-214 641.5,-214 641.5,-208 647.5,-202 653.5,-202"/>
<text text-anchor="middle" x="676.5" y="-242.8" font-family="Helvetica,sans-Serif" font-weight="bold" font-size="9.00">repository</text>
</g>
<g id="clust8" class="cluster">
<title>cluster_src/domain/useCase</title>
<path fill="#ffffff" stroke="black" stroke-width="2" d="M546,-202C546,-202 592,-202 592,-202 598,-202 604,-208 604,-214 604,-214 604,-242 604,-242 604,-248 598,-254 592,-254 592,-254 546,-254 546,-254 540,-254 534,-248 534,-242 534,-242 534,-214 534,-214 534,-208 540,-202 546,-202"/>
<text text-anchor="middle" x="569" y="-242.8" font-family="Helvetica,sans-Serif" font-weight="bold" font-size="9.00">useCase</text>
</g>
<g id="clust9" class="cluster">
<title>cluster_src/main</title>
<path fill="#ffffff" stroke="black" stroke-width="2" d="M90,-16C90,-16 206,-16 206,-16 212,-16 218,-22 218,-28 218,-28 218,-56 218,-56 218,-62 212,-68 206,-68 206,-68 90,-68 90,-68 84,-68 78,-62 78,-56 78,-56 78,-28 78,-28 78,-22 84,-16 90,-16"/>
<text text-anchor="middle" x="148" y="-56.8" font-family="Helvetica,sans-Serif" font-weight="bold" font-size="9.00">main</text>
</g>
<g id="clust10" class="cluster">
<title>cluster_src/presentation</title>
<path fill="#ffffff" stroke="black" stroke-width="2" d="M238,-186C238,-186 491,-186 491,-186 497,-186 503,-192 503,-198 503,-198 503,-380 503,-380 503,-386 497,-392 491,-392 491,-392 238,-392 238,-392 232,-392 226,-386 226,-380 226,-380 226,-198 226,-198 226,-192 232,-186 238,-186"/>
<text text-anchor="middle" x="364.5" y="-380.8" font-family="Helvetica,sans-Serif" font-weight="bold" font-size="9.00">presentation</text>
</g>
<g id="clust11" class="cluster">
<title>cluster_src/presentation/coin</title>
<path fill="#ffffff" stroke="black" stroke-width="2" d="M319.5,-194C319.5,-194 476,-194 476,-194 482,-194 488,-200 488,-206 488,-206 488,-234 488,-234 488,-240 482,-246 476,-246 476,-246 319.5,-246 319.5,-246 313.5,-246 307.5,-240 307.5,-234 307.5,-234 307.5,-206 307.5,-206 307.5,-200 313.5,-194 319.5,-194"/>
<text text-anchor="middle" x="397.75" y="-234.8" font-family="Helvetica,sans-Serif" font-weight="bold" font-size="9.00">coin</text>
</g>
<g id="clust12" class="cluster">
<title>cluster_src/presentation/coinList</title>
<path fill="#ffffff" stroke="black" stroke-width="2" d="M319.5,-254C319.5,-254 483,-254 483,-254 489,-254 495,-260 495,-266 495,-266 495,-294 495,-294 495,-300 489,-306 483,-306 483,-306 319.5,-306 319.5,-306 313.5,-306 307.5,-300 307.5,-294 307.5,-294 307.5,-266 307.5,-266 307.5,-260 313.5,-254 319.5,-254"/>
<text text-anchor="middle" x="401.25" y="-294.8" font-family="Helvetica,sans-Serif" font-weight="bold" font-size="9.00">coinList</text>
</g>
<g id="clust13" class="cluster">
<title>cluster_src/presentation/hook</title>
<path fill="#ffffff" stroke="black" stroke-width="2" d="M420.5,-314C420.5,-314 466.5,-314 466.5,-314 472.5,-314 478.5,-320 478.5,-326 478.5,-326 478.5,-354 478.5,-354 478.5,-360 472.5,-366 466.5,-366 466.5,-366 420.5,-366 420.5,-366 414.5,-366 408.5,-360 408.5,-354 408.5,-354 408.5,-326 408.5,-326 408.5,-320 414.5,-314 420.5,-314"/>
<text text-anchor="middle" x="443.5" y="-354.8" font-family="Helvetica,sans-Serif" font-weight="bold" font-size="9.00">hook</text>
</g>
<!-- src/data/dataSource/dataSource.ts -->
<g id="node1" class="node">
<title>src/data/dataSource/dataSource.ts</title>
<g id="a_node1"><a xlink:href="src/data/dataSource/dataSource.ts" xlink:title="dataSource.ts">
<path fill="#ddfeff" stroke="black" d="M707,-124C707,-124 646,-124 646,-124 643,-124 640,-121 640,-118 640,-118 640,-112 640,-112 640,-109 643,-106 646,-106 646,-106 707,-106 707,-106 710,-106 713,-109 713,-112 713,-112 713,-118 713,-118 713,-121 710,-124 707,-124"/>
<text text-anchor="start" x="648" y="-112.8" font-family="Helvetica,sans-Serif" font-size="9.00">dataSource.ts</text>
</a>
</g>
</g>
<!-- src/domain/model/index.ts -->
<g id="node2" class="node">
<title>src/domain/model/index.ts</title>
<g id="a_node2"><a xlink:href="src/domain/model/index.ts" xlink:title="index.ts">
<path fill="#ddfeff" stroke="black" d="M793,-228C793,-228 751,-228 751,-228 748,-228 745,-225 745,-222 745,-222 745,-216 745,-216 745,-213 748,-210 751,-210 751,-210 793,-210 793,-210 796,-210 799,-213 799,-216 799,-216 799,-222 799,-222 799,-225 796,-228 793,-228"/>
<text text-anchor="start" x="756" y="-216.8" font-family="Helvetica,sans-Serif" font-size="9.00">index.ts</text>
</a>
</g>
</g>
<!-- src/data/dataSource/dataSource.ts&#45;&gt;src/domain/model/index.ts -->
<g id="edge1" class="edge">
<title>src/data/dataSource/dataSource.ts&#45;&gt;src/domain/model/index.ts</title>
<path fill="none" stroke="#000000" stroke-width="2" stroke-opacity="0.200000" d="M685.8,-124.23C701.77,-141.99 736.95,-181.12 756.74,-203.14"/>
<polygon fill="#000000" fill-opacity="0.200000" stroke="#000000" stroke-width="2" stroke-opacity="0.200000" points="754.99,-204.33 760.56,-207.39 758.11,-201.52 754.99,-204.33"/>
</g>
<!-- src/data/dataSource/index.ts -->
<g id="node3" class="node">
<title>src/data/dataSource/index.ts</title>
<g id="a_node3"><a xlink:href="src/data/dataSource/index.ts" xlink:title="index.ts">
<path fill="#ddfeff" stroke="black" d="M464.5,-116C464.5,-116 422.5,-116 422.5,-116 419.5,-116 416.5,-113 416.5,-110 416.5,-110 416.5,-104 416.5,-104 416.5,-101 419.5,-98 422.5,-98 422.5,-98 464.5,-98 464.5,-98 467.5,-98 470.5,-101 470.5,-104 470.5,-104 470.5,-110 470.5,-110 470.5,-113 467.5,-116 464.5,-116"/>
<text text-anchor="start" x="427.5" y="-104.8" font-family="Helvetica,sans-Serif" font-size="9.00">index.ts</text>
</a>
</g>
</g>
<!-- src/data/dataSource/index.ts&#45;&gt;src/data/dataSource/dataSource.ts -->
<g id="edge2" class="edge">
<title>src/data/dataSource/index.ts&#45;&gt;src/data/dataSource/dataSource.ts</title>
<path fill="none" stroke="#000000" stroke-width="2" stroke-opacity="0.200000" d="M470.95,-111.41C483.11,-113.22 497.75,-115.11 511,-116 562.44,-119.47 575.45,-116.53 627,-116 628.29,-115.99 629.6,-115.97 630.92,-115.95"/>
<polygon fill="#000000" fill-opacity="0.200000" stroke="#000000" stroke-width="2" stroke-opacity="0.200000" points="630.75,-118.06 636.72,-115.87 630.69,-113.86 630.75,-118.06"/>
</g>
<!-- src/data/dataSource/onMemorySourceImpl.ts -->
<g id="node4" class="node">
<title>src/data/dataSource/onMemorySourceImpl.ts</title>
<g id="a_node4"><a xlink:href="src/data/dataSource/onMemorySourceImpl.ts" xlink:title="onMemorySourceImpl.ts">
<path fill="#ddfeff" stroke="black" d="M621,-110C621,-110 517,-110 517,-110 514,-110 511,-107 511,-104 511,-104 511,-98 511,-98 511,-95 514,-92 517,-92 517,-92 621,-92 621,-92 624,-92 627,-95 627,-98 627,-98 627,-104 627,-104 627,-107 624,-110 621,-110"/>
<text text-anchor="start" x="519" y="-98.8" font-family="Helvetica,sans-Serif" font-size="9.00">onMemorySourceImpl.ts</text>
</a>
</g>
</g>
<!-- src/data/dataSource/index.ts&#45;&gt;src/data/dataSource/onMemorySourceImpl.ts -->
<g id="edge3" class="edge">
<title>src/data/dataSource/index.ts&#45;&gt;src/data/dataSource/onMemorySourceImpl.ts</title>
<path fill="none" stroke="#000000" stroke-width="2" stroke-opacity="0.200000" d="M470.99,-105.71C480.17,-105.27 490.9,-104.75 501.82,-104.22"/>
<polygon fill="#000000" fill-opacity="0.200000" stroke="#000000" stroke-width="2" stroke-opacity="0.200000" points="501.67,-106.33 507.56,-103.94 501.47,-102.13 501.67,-106.33"/>
</g>
<!-- src/data/dataSource/onMemorySourceImpl.ts&#45;&gt;src/data/dataSource/dataSource.ts -->
<g id="edge5" class="edge">
<title>src/data/dataSource/onMemorySourceImpl.ts&#45;&gt;src/data/dataSource/dataSource.ts</title>
<path fill="none" stroke="#000000" stroke-width="2" stroke-opacity="0.200000" d="M627.38,-108.61C628.55,-108.77 629.72,-108.92 630.88,-109.08"/>
<polygon fill="#000000" fill-opacity="0.200000" stroke="#000000" stroke-width="2" stroke-opacity="0.200000" points="630.4,-111.13 636.63,-109.84 630.96,-106.97 630.4,-111.13"/>
</g>
<!-- src/data/dataSource/onMemorySourceImpl.ts&#45;&gt;src/domain/model/index.ts -->
<g id="edge4" class="edge">
<title>src/data/dataSource/onMemorySourceImpl.ts&#45;&gt;src/domain/model/index.ts</title>
<path fill="none" stroke="#000000" stroke-width="2" stroke-opacity="0.200000" d="M598.81,-91.56C633.15,-82.23 690.69,-72.9 729,-100 761.65,-123.1 769.09,-173.78 770.68,-200.95"/>
<polygon fill="#000000" fill-opacity="0.200000" stroke="#000000" stroke-width="2" stroke-opacity="0.200000" points="768.57,-200.87 770.91,-206.78 772.77,-200.7 768.57,-200.87"/>
</g>
<!-- src/data/index.ts -->
<g id="node5" class="node">
<title>src/data/index.ts</title>
<g id="a_node5"><a xlink:href="src/data/index.ts" xlink:title="index.ts">
<path fill="#ddfeff" stroke="black" d="M204,-102C204,-102 162,-102 162,-102 159,-102 156,-99 156,-96 156,-96 156,-90 156,-90 156,-87 159,-84 162,-84 162,-84 204,-84 204,-84 207,-84 210,-87 210,-90 210,-90 210,-96 210,-96 210,-99 207,-102 204,-102"/>
<text text-anchor="start" x="167" y="-90.8" font-family="Helvetica,sans-Serif" font-size="9.00">index.ts</text>
</a>
</g>
</g>
<!-- src/data/index.ts&#45;&gt;src/data/dataSource/index.ts -->
<g id="edge6" class="edge">
<title>src/data/index.ts&#45;&gt;src/data/dataSource/index.ts</title>
<path fill="none" stroke="#000000" stroke-width="2" stroke-opacity="0.200000" d="M210.42,-90.73C250.07,-87.84 327.24,-84.19 392,-93 397.08,-93.69 402.38,-94.76 407.54,-96"/>
<polygon fill="#000000" fill-opacity="0.200000" stroke="#000000" stroke-width="2" stroke-opacity="0.200000" points="406.78,-97.97 413.12,-97.46 407.84,-93.91 406.78,-97.97"/>
</g>
<!-- src/data/repository/index.ts -->
<g id="node6" class="node">
<title>src/data/repository/index.ts</title>
<g id="a_node6"><a xlink:href="src/data/repository/index.ts" xlink:title="index.ts">
<path fill="#ddfeff" stroke="black" d="M282,-122C282,-122 240,-122 240,-122 237,-122 234,-119 234,-116 234,-116 234,-110 234,-110 234,-107 237,-104 240,-104 240,-104 282,-104 282,-104 285,-104 288,-107 288,-110 288,-110 288,-116 288,-116 288,-119 285,-122 282,-122"/>
<text text-anchor="start" x="245" y="-110.8" font-family="Helvetica,sans-Serif" font-size="9.00">index.ts</text>
</a>
</g>
</g>
<!-- src/data/index.ts&#45;&gt;src/data/repository/index.ts -->
<g id="edge7" class="edge">
<title>src/data/index.ts&#45;&gt;src/data/repository/index.ts</title>
<path fill="none" stroke="#000000" stroke-width="2" stroke-opacity="0.200000" d="M210.15,-99.88C215,-101.16 220.12,-102.51 225.17,-103.84"/>
<polygon fill="#000000" fill-opacity="0.200000" stroke="#000000" stroke-width="2" stroke-opacity="0.200000" points="224.27,-105.77 230.61,-105.27 225.34,-101.71 224.27,-105.77"/>
</g>
<!-- src/data/repository/repositoryImpl.ts -->
<g id="node7" class="node">
<title>src/data/repository/repositoryImpl.ts</title>
<g id="a_node7"><a xlink:href="src/data/repository/repositoryImpl.ts" xlink:title="repositoryImpl.ts">
<path fill="#ddfeff" stroke="black" d="M378,-122C378,-122 307,-122 307,-122 304,-122 301,-119 301,-116 301,-116 301,-110 301,-110 301,-107 304,-104 307,-104 307,-104 378,-104 378,-104 381,-104 384,-107 384,-110 384,-110 384,-116 384,-116 384,-119 381,-122 378,-122"/>
<text text-anchor="start" x="309" y="-110.8" font-family="Helvetica,sans-Serif" font-size="9.00">repositoryImpl.ts</text>
</a>
</g>
</g>
<!-- src/data/repository/index.ts&#45;&gt;src/data/repository/repositoryImpl.ts -->
<g id="edge8" class="edge">
<title>src/data/repository/index.ts&#45;&gt;src/data/repository/repositoryImpl.ts</title>
<path fill="none" stroke="#000000" stroke-width="2" stroke-opacity="0.200000" d="M288.47,-113C289.56,-113 290.67,-113 291.79,-113"/>
<polygon fill="#000000" fill-opacity="0.200000" stroke="#000000" stroke-width="2" stroke-opacity="0.200000" points="291.5,-115.1 297.5,-113 291.5,-110.9 291.5,-115.1"/>
</g>
<!-- src/data/repository/repositoryImpl.ts&#45;&gt;src/domain/model/index.ts -->
<g id="edge9" class="edge">
<title>src/data/repository/repositoryImpl.ts&#45;&gt;src/domain/model/index.ts</title>
<path fill="none" stroke="#000000" stroke-width="2" stroke-opacity="0.200000" d="M355.69,-103.61C366.62,-95.83 383.43,-85.37 400,-81 541.4,-43.74 611.51,6.05 729,-81 766.77,-108.98 771.73,-170.11 771.69,-200.74"/>
<polygon fill="#000000" fill-opacity="0.200000" stroke="#000000" stroke-width="2" stroke-opacity="0.200000" points="769.6,-200.47 771.59,-206.51 773.8,-200.55 769.6,-200.47"/>
</g>
<!-- src/data/repository/repositoryImpl.ts&#45;&gt;src/data/dataSource/index.ts -->
<g id="edge11" class="edge">
<title>src/data/repository/repositoryImpl.ts&#45;&gt;src/data/dataSource/index.ts</title>
<path fill="none" stroke="#000000" stroke-width="2" stroke-opacity="0.200000" d="M384.34,-110.52C392.07,-110.06 400.1,-109.57 407.62,-109.11"/>
<polygon fill="#000000" fill-opacity="0.200000" stroke="#000000" stroke-width="2" stroke-opacity="0.200000" points="407.3,-111.24 413.17,-108.78 407.05,-107.04 407.3,-111.24"/>
</g>
<!-- src/domain/repository/index.ts -->
<g id="node8" class="node">
<title>src/domain/repository/index.ts</title>
<g id="a_node8"><a xlink:href="src/domain/repository/index.ts" xlink:title="index.ts">
<path fill="#ddfeff" stroke="black" d="M697.5,-228C697.5,-228 655.5,-228 655.5,-228 652.5,-228 649.5,-225 649.5,-222 649.5,-222 649.5,-216 649.5,-216 649.5,-213 652.5,-210 655.5,-210 655.5,-210 697.5,-210 697.5,-210 700.5,-210 703.5,-213 703.5,-216 703.5,-216 703.5,-222 703.5,-222 703.5,-225 700.5,-228 697.5,-228"/>
<text text-anchor="start" x="660.5" y="-216.8" font-family="Helvetica,sans-Serif" font-size="9.00">index.ts</text>
</a>
</g>
</g>
<!-- src/data/repository/repositoryImpl.ts&#45;&gt;src/domain/repository/index.ts -->
<g id="edge10" class="edge">
<title>src/data/repository/repositoryImpl.ts&#45;&gt;src/domain/repository/index.ts</title>
<path fill="none" stroke="#000000" stroke-width="2" stroke-opacity="0.200000" d="M353.45,-122.3C364.1,-131.68 381.92,-145.77 400,-153 494.67,-190.83 531.98,-149.05 627,-186 638.01,-190.28 649,-197.46 657.73,-204.03"/>
<polygon fill="#000000" fill-opacity="0.200000" stroke="#000000" stroke-width="2" stroke-opacity="0.200000" points="656.37,-205.63 662.38,-207.69 658.97,-202.33 656.37,-205.63"/>
</g>
<!-- src/domain/repository/index.ts&#45;&gt;src/domain/model/index.ts -->
<g id="edge12" class="edge">
<title>src/domain/repository/index.ts&#45;&gt;src/domain/model/index.ts</title>
<path fill="none" stroke="#000000" stroke-width="2" stroke-opacity="0.200000" d="M703.54,-219C713.59,-219 725.24,-219 736,-219"/>
<polygon fill="#000000" fill-opacity="0.200000" stroke="#000000" stroke-width="2" stroke-opacity="0.200000" points="735.74,-221.1 741.74,-219 735.74,-216.9 735.74,-221.1"/>
</g>
<!-- src/domain/useCase/index.ts -->
<g id="node9" class="node">
<title>src/domain/useCase/index.ts</title>
<g id="a_node9"><a xlink:href="src/domain/useCase/index.ts" xlink:title="index.ts">
<path fill="#ddfeff" stroke="black" d="M590,-228C590,-228 548,-228 548,-228 545,-228 542,-225 542,-222 542,-222 542,-216 542,-216 542,-213 545,-210 548,-210 548,-210 590,-210 590,-210 593,-210 596,-213 596,-216 596,-216 596,-222 596,-222 596,-225 593,-228 590,-228"/>
<text text-anchor="start" x="553" y="-216.8" font-family="Helvetica,sans-Serif" font-size="9.00">index.ts</text>
</a>
</g>
</g>
<!-- src/domain/useCase/index.ts&#45;&gt;src/domain/repository/index.ts -->
<g id="edge13" class="edge">
<title>src/domain/useCase/index.ts&#45;&gt;src/domain/repository/index.ts</title>
<path fill="none" stroke="#000000" stroke-width="2" stroke-opacity="0.200000" d="M596.35,-219C609.69,-219 626.07,-219 640.46,-219"/>
<polygon fill="#000000" fill-opacity="0.200000" stroke="#000000" stroke-width="2" stroke-opacity="0.200000" points="640.09,-221.1 646.09,-219 640.09,-216.9 640.09,-221.1"/>
</g>
<!-- src/index.tsx -->
<g id="node10" class="node">
<title>src/index.tsx</title>
<g id="a_node10"><a xlink:href="src/index.tsx" xlink:title="index.tsx">
<path fill="#bbfeff" stroke="black" d="M64,-42C64,-42 22,-42 22,-42 19,-42 16,-39 16,-36 16,-36 16,-30 16,-30 16,-27 19,-24 22,-24 22,-24 64,-24 64,-24 67,-24 70,-27 70,-30 70,-30 70,-36 70,-36 70,-39 67,-42 64,-42"/>
<text text-anchor="start" x="24.5" y="-30.8" font-family="Helvetica,sans-Serif" font-size="9.00">index.tsx</text>
</a>
</g>
</g>
<!-- src/main/app.tsx -->
<g id="node11" class="node">
<title>src/main/app.tsx</title>
<g id="a_node11"><a xlink:href="src/main/app.tsx" xlink:title="app.tsx">
<path fill="#bbfeff" stroke="black" d="M134,-42C134,-42 92,-42 92,-42 89,-42 86,-39 86,-36 86,-36 86,-30 86,-30 86,-27 89,-24 92,-24 92,-24 134,-24 134,-24 137,-24 140,-27 140,-30 140,-30 140,-36 140,-36 140,-39 137,-42 134,-42"/>
<text text-anchor="start" x="98" y="-30.8" font-family="Helvetica,sans-Serif" font-size="9.00">app.tsx</text>
</a>
</g>
</g>
<!-- src/index.tsx&#45;&gt;src/main/app.tsx -->
<g id="edge14" class="edge">
<title>src/index.tsx&#45;&gt;src/main/app.tsx</title>
<path fill="none" stroke="#000000" stroke-width="2" stroke-opacity="0.200000" d="M70.49,-33C72.7,-33 74.97,-33 77.24,-33"/>
<polygon fill="#000000" fill-opacity="0.200000" stroke="#000000" stroke-width="2" stroke-opacity="0.200000" points="76.9,-35.1 82.9,-33 76.9,-30.9 76.9,-35.1"/>
</g>
<!-- src/main/app.tsx&#45;&gt;src/data/index.ts -->
<g id="edge17" class="edge">
<title>src/main/app.tsx&#45;&gt;src/data/index.ts</title>
<path fill="none" stroke="#000000" stroke-width="2" stroke-opacity="0.200000" d="M121.21,-42.39C127.71,-50.5 137.77,-62.25 148,-71 151.09,-73.64 154.52,-76.21 157.97,-78.61"/>
<polygon fill="#000000" fill-opacity="0.200000" stroke="#000000" stroke-width="2" stroke-opacity="0.200000" points="156.77,-80.33 162.93,-81.88 159.08,-76.82 156.77,-80.33"/>
</g>
<!-- src/presentation/index.tsx -->
<g id="node12" class="node">
<title>src/presentation/index.tsx</title>
<g id="a_node12"><a xlink:href="src/presentation/index.tsx" xlink:title="index.tsx">
<path fill="#bbfeff" stroke="black" d="M282,-220C282,-220 240,-220 240,-220 237,-220 234,-217 234,-214 234,-214 234,-208 234,-208 234,-205 237,-202 240,-202 240,-202 282,-202 282,-202 285,-202 288,-205 288,-208 288,-208 288,-214 288,-214 288,-217 285,-220 282,-220"/>
<text text-anchor="start" x="242.5" y="-208.8" font-family="Helvetica,sans-Serif" font-size="9.00">index.tsx</text>
</a>
</g>
</g>
<!-- src/main/app.tsx&#45;&gt;src/presentation/index.tsx -->
<g id="edge15" class="edge">
<title>src/main/app.tsx&#45;&gt;src/presentation/index.tsx</title>
<path fill="none" stroke="#000000" stroke-width="2" stroke-opacity="0.200000" d="M114.94,-42.27C118.04,-71.18 128.89,-158.92 148,-179 167.87,-199.87 200.32,-207.43 225.19,-210.02"/>
<polygon fill="#000000" fill-opacity="0.200000" stroke="#000000" stroke-width="2" stroke-opacity="0.200000" points="224.8,-212.09 230.96,-210.51 225.16,-207.91 224.8,-212.09"/>
</g>
<!-- src/main/style.css -->
<g id="node13" class="node">
<title>src/main/style.css</title>
<g id="a_node13"><a xlink:href="src/main/style.css" xlink:title="style.css">
<path fill="#ffffcc" stroke="black" d="M204,-42C204,-42 162,-42 162,-42 159,-42 156,-39 156,-36 156,-36 156,-30 156,-30 156,-27 159,-24 162,-24 162,-24 204,-24 204,-24 207,-24 210,-27 210,-30 210,-30 210,-36 210,-36 210,-39 207,-42 204,-42"/>
<text text-anchor="start" x="165.5" y="-30.8" font-family="Helvetica,sans-Serif" font-size="9.00">style.css</text>
</a>
</g>
</g>
<!-- src/main/app.tsx&#45;&gt;src/main/style.css -->
<g id="edge16" class="edge">
<title>src/main/app.tsx&#45;&gt;src/main/style.css</title>
<path fill="none" stroke="#000000" stroke-width="2" stroke-opacity="0.200000" d="M140.49,-33C142.7,-33 144.97,-33 147.24,-33"/>
<polygon fill="#000000" fill-opacity="0.200000" stroke="#000000" stroke-width="2" stroke-opacity="0.200000" points="146.9,-35.1 152.9,-33 146.9,-30.9 146.9,-35.1"/>
</g>
<!-- src/presentation/coin/index.tsx -->
<g id="node15" class="node">
<title>src/presentation/coin/index.tsx</title>
<g id="a_node15"><a xlink:href="src/presentation/coin/index.tsx" xlink:title="index.tsx">
<path fill="#bbfeff" stroke="black" d="M363.5,-220C363.5,-220 321.5,-220 321.5,-220 318.5,-220 315.5,-217 315.5,-214 315.5,-214 315.5,-208 315.5,-208 315.5,-205 318.5,-202 321.5,-202 321.5,-202 363.5,-202 363.5,-202 366.5,-202 369.5,-205 369.5,-208 369.5,-208 369.5,-214 369.5,-214 369.5,-217 366.5,-220 363.5,-220"/>
<text text-anchor="start" x="324" y="-208.8" font-family="Helvetica,sans-Serif" font-size="9.00">index.tsx</text>
</a>
</g>
</g>
<!-- src/presentation/index.tsx&#45;&gt;src/presentation/coin/index.tsx -->
<g id="edge28" class="edge">
<title>src/presentation/index.tsx&#45;&gt;src/presentation/coin/index.tsx</title>
<path fill="none" stroke="#000000" stroke-width="2" stroke-opacity="0.200000" d="M288.47,-211C294.24,-211 300.43,-211 306.47,-211"/>
<polygon fill="#000000" fill-opacity="0.200000" stroke="#000000" stroke-width="2" stroke-opacity="0.200000" points="306.12,-213.1 312.12,-211 306.12,-208.9 306.12,-213.1"/>
</g>
<!-- src/presentation/coinList/index.tsx -->
<g id="node17" class="node">
<title>src/presentation/coinList/index.tsx</title>
<g id="a_node17"><a xlink:href="src/presentation/coinList/index.tsx" xlink:title="index.tsx">
<path fill="#bbfeff" stroke="black" d="M363.5,-280C363.5,-280 321.5,-280 321.5,-280 318.5,-280 315.5,-277 315.5,-274 315.5,-274 315.5,-268 315.5,-268 315.5,-265 318.5,-262 321.5,-262 321.5,-262 363.5,-262 363.5,-262 366.5,-262 369.5,-265 369.5,-268 369.5,-268 369.5,-274 369.5,-274 369.5,-277 366.5,-280 363.5,-280"/>
<text text-anchor="start" x="324" y="-268.8" font-family="Helvetica,sans-Serif" font-size="9.00">index.tsx</text>
</a>
</g>
</g>
<!-- src/presentation/index.tsx&#45;&gt;src/presentation/coinList/index.tsx -->
<g id="edge29" class="edge">
<title>src/presentation/index.tsx&#45;&gt;src/presentation/coinList/index.tsx</title>
<g id="a_edge29"><a xlink:title="no&#45;circular">
<path fill="none" stroke="orange" stroke-width="2" d="M266.65,-220.3C272.2,-228.24 282.11,-239.24 300.13,-253.09"/>
<polygon fill="orange" stroke="orange" stroke-width="2" points="306.6,-260.35 312.69,-262.17 309.06,-256.95 306.6,-260.35"/>
<polyline fill="none" stroke="orange" stroke-width="2" points="307.02,-258.07 304.58,-256.31"/>
<ellipse fill="none" stroke="orange" stroke-width="2" cx="301.83" cy="-254.32" rx="2.4" ry="2.4"/>
</a>
</g>
<text text-anchor="middle" x="267.08" y="-236.92" font-family="Helvetica,sans-Serif" font-size="9.00" fill="orange">no&#45;circular</text>
</g>
<!-- src/presentation/coin/coin.styles.tsx -->
<g id="node14" class="node">
<title>src/presentation/coin/coin.styles.tsx</title>
<g id="a_node14"><a xlink:href="src/presentation/coin/coin.styles.tsx" xlink:title="coin.styles.tsx">
<path fill="#bbfeff" stroke="black" d="M474,-220C474,-220 413,-220 413,-220 410,-220 407,-217 407,-214 407,-214 407,-208 407,-208 407,-205 410,-202 413,-202 413,-202 474,-202 474,-202 477,-202 480,-205 480,-208 480,-208 480,-214 480,-214 480,-217 477,-220 474,-220"/>
<text text-anchor="start" x="415" y="-208.8" font-family="Helvetica,sans-Serif" font-size="9.00">coin.styles.tsx</text>
</a>
</g>
</g>
<!-- src/presentation/coin/index.tsx&#45;&gt;src/domain/model/index.ts -->
<g id="edge19" class="edge">
<title>src/presentation/coin/index.tsx&#45;&gt;src/domain/model/index.ts</title>
<path fill="none" stroke="#000000" stroke-width="2" stroke-opacity="0.200000" d="M361.01,-220.42C371.95,-227.33 385.22,-237.8 392,-251 404.01,-274.38 380.8,-351.06 400,-369 416.72,-384.63 480.53,-373.35 503,-369 609.3,-348.4 643.96,-345.03 729,-278 743.42,-266.64 755.05,-249.04 762.39,-236.02"/>
<polygon fill="#000000" fill-opacity="0.200000" stroke="#000000" stroke-width="2" stroke-opacity="0.200000" points="764.15,-237.18 765.14,-230.9 760.45,-235.19 764.15,-237.18"/>
</g>
<!-- src/presentation/coin/index.tsx&#45;&gt;src/presentation/coin/coin.styles.tsx -->
<g id="edge18" class="edge">
<title>src/presentation/coin/index.tsx&#45;&gt;src/presentation/coin/coin.styles.tsx</title>
<path fill="none" stroke="#000000" stroke-width="2" stroke-opacity="0.200000" d="M369.77,-211C378.45,-211 388.37,-211 398.03,-211"/>
<polygon fill="#000000" fill-opacity="0.200000" stroke="#000000" stroke-width="2" stroke-opacity="0.200000" points="397.76,-213.1 403.76,-211 397.76,-208.9 397.76,-213.1"/>
</g>
<!-- src/presentation/coinList/coinList.styles.tsx -->
<g id="node16" class="node">
<title>src/presentation/coinList/coinList.styles.tsx</title>
<g id="a_node16"><a xlink:href="src/presentation/coinList/coinList.styles.tsx" xlink:title="coinList.styles.tsx">
<path fill="#bbfeff" stroke="black" d="M481,-280C481,-280 406,-280 406,-280 403,-280 400,-277 400,-274 400,-274 400,-268 400,-268 400,-265 403,-262 406,-262 406,-262 481,-262 481,-262 484,-262 487,-265 487,-268 487,-268 487,-274 487,-274 487,-277 484,-280 481,-280"/>
<text text-anchor="start" x="408" y="-268.8" font-family="Helvetica,sans-Serif" font-size="9.00">coinList.styles.tsx</text>
</a>
</g>
</g>
<!-- src/presentation/coinList/index.tsx&#45;&gt;src/domain/model/index.ts -->
<g id="edge22" class="edge">
<title>src/presentation/coinList/index.tsx&#45;&gt;src/domain/model/index.ts</title>
<path fill="none" stroke="#000000" stroke-width="2" stroke-opacity="0.200000" d="M345.16,-280.27C349.58,-301.86 363.88,-355.32 400,-377 439.25,-400.56 457.37,-380.66 503,-377 607.43,-368.63 654.9,-384.06 729,-310 749.61,-289.4 761.23,-256.81 766.8,-236.73"/>
<polygon fill="#000000" fill-opacity="0.200000" stroke="#000000" stroke-width="2" stroke-opacity="0.200000" points="768.77,-237.49 768.24,-231.16 764.71,-236.44 768.77,-237.49"/>
</g>
<!-- src/presentation/coinList/index.tsx&#45;&gt;src/domain/repository/index.ts -->
<g id="edge23" class="edge">
<title>src/presentation/coinList/index.tsx&#45;&gt;src/domain/repository/index.ts</title>
<path fill="none" stroke="#000000" stroke-width="2" stroke-opacity="0.200000" d="M369.93,-264.5C378.2,-261.19 386.58,-256.26 392,-249 407.56,-228.14 380.38,-208.1 400,-191 413.93,-178.86 622.53,-197.96 627,-199 634.11,-200.65 641.53,-203.23 648.35,-205.99"/>
<polygon fill="#000000" fill-opacity="0.200000" stroke="#000000" stroke-width="2" stroke-opacity="0.200000" points="647.5,-207.91 653.84,-208.34 649.15,-204.05 647.5,-207.91"/>
</g>
<!-- src/presentation/coinList/index.tsx&#45;&gt;src/presentation/index.tsx -->
<g id="edge24" class="edge">
<title>src/presentation/coinList/index.tsx&#45;&gt;src/presentation/index.tsx</title>
<g id="a_edge24"><a xlink:title="no&#45;circular">
<path fill="none" stroke="orange" stroke-width="2" d="M331.39,-261.68C322.91,-256.45 310.66,-250.12 301,-243 296.94,-240.01 292.87,-236.61 288.99,-233.16"/>
<polygon fill="orange" stroke="orange" stroke-width="2" points="283.28,-224.98 277.45,-222.42 280.41,-228.05 283.28,-224.98"/>
<polyline fill="none" stroke="orange" stroke-width="2" points="282.58,-227.19 284.77,-229.24"/>
<ellipse fill="none" stroke="orange" stroke-width="2" cx="287.26" cy="-231.56" rx="2.4" ry="2.4"/>
</a>
</g>
<text text-anchor="middle" x="322.81" y="-235.66" font-family="Helvetica,sans-Serif" font-size="9.00" fill="orange">no&#45;circular</text>
</g>
<!-- src/presentation/coinList/index.tsx&#45;&gt;src/presentation/coinList/coinList.styles.tsx -->
<g id="edge21" class="edge">
<title>src/presentation/coinList/index.tsx&#45;&gt;src/presentation/coinList/coinList.styles.tsx</title>
<path fill="none" stroke="#000000" stroke-width="2" stroke-opacity="0.200000" d="M369.77,-271C376.36,-271 383.66,-271 391.01,-271"/>
<polygon fill="#000000" fill-opacity="0.200000" stroke="#000000" stroke-width="2" stroke-opacity="0.200000" points="390.61,-273.1 396.61,-271 390.61,-268.9 390.61,-273.1"/>
</g>
<!-- src/presentation/hook/index.tsx -->
<g id="node18" class="node">
<title>src/presentation/hook/index.tsx</title>
<g id="a_node18"><a xlink:href="src/presentation/hook/index.tsx" xlink:title="index.tsx">
<path fill="#bbfeff" stroke="black" d="M464.5,-340C464.5,-340 422.5,-340 422.5,-340 419.5,-340 416.5,-337 416.5,-334 416.5,-334 416.5,-328 416.5,-328 416.5,-325 419.5,-322 422.5,-322 422.5,-322 464.5,-322 464.5,-322 467.5,-322 470.5,-325 470.5,-328 470.5,-328 470.5,-334 470.5,-334 470.5,-337 467.5,-340 464.5,-340"/>
<text text-anchor="start" x="425" y="-328.8" font-family="Helvetica,sans-Serif" font-size="9.00">index.tsx</text>
</a>
</g>
</g>
<!-- src/presentation/coinList/index.tsx&#45;&gt;src/presentation/hook/index.tsx -->
<g id="edge20" class="edge">
<title>src/presentation/coinList/index.tsx&#45;&gt;src/presentation/hook/index.tsx</title>
<path fill="none" stroke="#000000" stroke-width="2" stroke-opacity="0.200000" d="M356.24,-280.18C367.52,-288.16 384.54,-299.84 400,-309 404.88,-311.89 410.18,-314.8 415.32,-317.52"/>
<polygon fill="#000000" fill-opacity="0.200000" stroke="#000000" stroke-width="2" stroke-opacity="0.200000" points="414.22,-319.32 420.52,-320.21 416.15,-315.59 414.22,-319.32"/>
</g>
<!-- src/presentation/hook/index.tsx&#45;&gt;src/domain/model/index.ts -->
<g id="edge26" class="edge">
<title>src/presentation/hook/index.tsx&#45;&gt;src/domain/model/index.ts</title>
<path fill="none" stroke="#000000" stroke-width="2" stroke-opacity="0.200000" d="M470.74,-328.4C522.8,-322.37 641.65,-304.15 729,-257 739.68,-251.23 749.83,-242.19 757.47,-234.38"/>
<polygon fill="#000000" fill-opacity="0.200000" stroke="#000000" stroke-width="2" stroke-opacity="0.200000" points="758.62,-236.22 761.19,-230.41 755.55,-233.35 758.62,-236.22"/>
</g>
<!-- src/presentation/hook/index.tsx&#45;&gt;src/domain/repository/index.ts -->
<g id="edge25" class="edge">
<title>src/presentation/hook/index.tsx&#45;&gt;src/domain/repository/index.ts</title>
<path fill="none" stroke="#000000" stroke-width="2" stroke-opacity="0.200000" d="M470.89,-325.1C481.69,-321.72 493.79,-316.59 503,-309 508.23,-304.68 505.69,-300.22 511,-296 553.57,-262.15 579.12,-282.81 627,-257 638.59,-250.75 650.25,-241.73 659.23,-234.04"/>
<polygon fill="#000000" fill-opacity="0.200000" stroke="#000000" stroke-width="2" stroke-opacity="0.200000" points="660.42,-235.79 663.53,-230.24 657.64,-232.64 660.42,-235.79"/>
</g>
<!-- src/presentation/hook/index.tsx&#45;&gt;src/domain/useCase/index.ts -->
<g id="edge27" class="edge">
<title>src/presentation/hook/index.tsx&#45;&gt;src/domain/useCase/index.ts</title>
<path fill="none" stroke="#000000" stroke-width="2" stroke-opacity="0.200000" d="M470.72,-326.88C482.15,-323.79 494.79,-318.4 503,-309 513.5,-296.98 503.15,-287.9 511,-274 520.04,-257.98 535.2,-243.69 547.61,-233.69"/>
<polygon fill="#000000" fill-opacity="0.200000" stroke="#000000" stroke-width="2" stroke-opacity="0.200000" points="548.68,-235.51 552.14,-230.18 546.11,-232.19 548.68,-235.51"/>
</g>
</g>
</svg>
