<?xml version="1.0" encoding="UTF-8" standalone="no"?>
<!DOCTYPE svg PUBLIC "-//W3C//DTD SVG 1.1//EN"
 "http://www.w3.org/Graphics/SVG/1.1/DTD/svg11.dtd">
<!-- Generated by graphviz version 7.0.0 (20221023.0053)
 -->
<!-- Title: dependency&#45;cruiser output Pages: 1 -->
<svg width="831pt" height="544pt"
 viewBox="0.00 0.00 831.00 544.00" xmlns="http://www.w3.org/2000/svg" xmlns:xlink="http://www.w3.org/1999/xlink">
<g id="graph0" class="graph" transform="scale(1 1) rotate(0) translate(4 540)">
<title>dependency&#45;cruiser output</title>
<polygon fill="white" stroke="none" points="-4,4 -4,-540 827,-540 827,4 -4,4"/>
<g id="clust1" class="cluster">
<title>cluster_src</title>
<path fill="#ffffff" stroke="black" stroke-width="2" d="M20,-8C20,-8 803,-8 803,-8 809,-8 815,-14 815,-20 815,-20 815,-516 815,-516 815,-522 809,-528 803,-528 803,-528 20,-528 20,-528 14,-528 8,-522 8,-516 8,-516 8,-20 8,-20 8,-14 14,-8 20,-8"/>
<text text-anchor="middle" x="411.5" y="-516.8" font-family="Helvetica,sans-Serif" font-weight="bold" font-size="9.00">src</text>
</g>
<g id="clust2" class="cluster">
<title>cluster_src/data</title>
<path fill="#ffffff" stroke="black" stroke-width="2" d="M160,-76C160,-76 709,-76 709,-76 715,-76 721,-82 721,-88 721,-88 721,-164 721,-164 721,-170 715,-176 709,-176 709,-176 160,-176 160,-176 154,-176 148,-170 148,-164 148,-164 148,-88 148,-88 148,-82 154,-76 160,-76"/>
<text text-anchor="middle" x="434.5" y="-164.8" font-family="Helvetica,sans-Serif" font-weight="bold" font-size="9.00">data</text>
</g>
<g id="clust3" class="cluster">
<title>cluster_src/data/dataSource</title>
<path fill="#ffffff" stroke="black" stroke-width="2" d="M420.5,-84C420.5,-84 701,-84 701,-84 707,-84 713,-90 713,-96 713,-96 713,-138 713,-138 713,-144 707,-150 701,-150 701,-150 420.5,-150 420.5,-150 414.5,-150 408.5,-144 408.5,-138 408.5,-138 408.5,-96 408.5,-96 408.5,-90 414.5,-84 420.5,-84"/>
<text text-anchor="middle" x="560.75" y="-138.8" font-family="Helvetica,sans-Serif" font-weight="bold" font-size="9.00">dataSource</text>
</g>
<g id="clust4" class="cluster">
<title>cluster_src/data/repository</title>
<path fill="#ffffff" stroke="black" stroke-width="2" d="M238,-98C238,-98 380,-98 380,-98 386,-98 392,-104 392,-110 392,-110 392,-138 392,-138 392,-144 386,-150 380,-150 380,-150 238,-150 238,-150 232,-150 226,-144 226,-138 226,-138 226,-110 226,-110 226,-104 232,-98 238,-98"/>
<text text-anchor="middle" x="309" y="-138.8" font-family="Helvetica,sans-Serif" font-weight="bold" font-size="9.00">repository</text>
</g>
<g id="clust5" class="cluster">
<title>cluster_src/domain</title>
<path fill="#ffffff" stroke="black" stroke-width="2" d="M530,-202C530,-202 795,-202 795,-202 801,-202 807,-208 807,-214 807,-214 807,-276 807,-276 807,-282 801,-288 795,-288 795,-288 530,-288 530,-288 524,-288 518,-282 518,-276 518,-276 518,-214 518,-214 518,-208 524,-202 530,-202"/>
<text text-anchor="middle" x="662.5" y="-276.8" font-family="Helvetica,sans-Serif" font-weight="bold" font-size="9.00">domain</text>
</g>
<g id="clust6" class="cluster">
<title>cluster_src/domain/model</title>
<path fill="#ffffff" stroke="black" stroke-width="2" d="M741,-210C741,-210 787,-210 787,-210 793,-210 799,-216 799,-222 799,-222 799,-250 799,-250 799,-256 793,-262 787,-262 787,-262 741,-262 741,-262 735,-262 729,-256 729,-250 729,-250 729,-222 729,-222 729,-216 735,-210 741,-210"/>
<text text-anchor="middle" x="764" y="-250.8" font-family="Helvetica,sans-Serif" font-weight="bold" font-size="9.00">model</text>
</g>
<g id="clust7" class="cluster">
<title>cluster_src/domain/repository</title>
<path fill="#ffffff" stroke="black" stroke-width="2" d="M645.5,-210C645.5,-210 691.5,-210 691.5,-210 697.5,-210 703.5,-216 703.5,-222 703.5,-222 703.5,-250 703.5,-250 703.5,-256 697.5,-262 691.5,-262 691.5,-262 645.5,-262 645.5,-262 639.5,-262 633.5,-256 633.5,-250 633.5,-250 633.5,-222 633.5,-222 633.5,-216 639.5,-210 645.5,-210"/>
<text text-anchor="middle" x="668.5" y="-250.8" font-family="Helvetica,sans-Serif" font-weight="bold" font-size="9.00">repository</text>
</g>
<g id="clust8" class="cluster">
<title>cluster_src/domain/useCase</title>
<path fill="#ffffff" stroke="black" stroke-width="2" d="M538,-210C538,-210 584,-210 584,-210 590,-210 596,-216 596,-222 596,-222 596,-250 596,-250 596,-256 590,-262 584,-262 584,-262 538,-262 538,-262 532,-262 526,-256 526,-250 526,-250 526,-222 526,-222 526,-216 532,-210 538,-210"/>
<text text-anchor="middle" x="561" y="-250.8" font-family="Helvetica,sans-Serif" font-weight="bold" font-size="9.00">useCase</text>
</g>
<g id="clust9" class="cluster">
<title>cluster_src/main</title>
<path fill="#ffffff" stroke="black" stroke-width="2" d="M90,-16C90,-16 206,-16 206,-16 212,-16 218,-22 218,-28 218,-28 218,-56 218,-56 218,-62 212,-68 206,-68 206,-68 90,-68 90,-68 84,-68 78,-62 78,-56 78,-56 78,-28 78,-28 78,-22 84,-16 90,-16"/>
<text text-anchor="middle" x="148" y="-56.8" font-family="Helvetica,sans-Serif" font-weight="bold" font-size="9.00">main</text>
</g>
<g id="clust10" class="cluster">
<title>cluster_src/presentation</title>
<path fill="#ffffff" stroke="black" stroke-width="2" d="M238,-296C238,-296 601.5,-296 601.5,-296 607.5,-296 613.5,-302 613.5,-308 613.5,-308 613.5,-490 613.5,-490 613.5,-496 607.5,-502 601.5,-502 601.5,-502 238,-502 238,-502 232,-502 226,-496 226,-490 226,-490 226,-308 226,-308 226,-302 232,-296 238,-296"/>
<text text-anchor="middle" x="419.75" y="-490.8" font-family="Helvetica,sans-Serif" font-weight="bold" font-size="9.00">presentation</text>
</g>
<g id="clust11" class="cluster">
<title>cluster_src/presentation/coin</title>
<path fill="#ffffff" stroke="black" stroke-width="2" d="M420.5,-424C420.5,-424 593.5,-424 593.5,-424 599.5,-424 605.5,-430 605.5,-436 605.5,-436 605.5,-464 605.5,-464 605.5,-470 599.5,-476 593.5,-476 593.5,-476 420.5,-476 420.5,-476 414.5,-476 408.5,-470 408.5,-464 408.5,-464 408.5,-436 408.5,-436 408.5,-430 414.5,-424 420.5,-424"/>
<text text-anchor="middle" x="507" y="-464.8" font-family="Helvetica,sans-Serif" font-weight="bold" font-size="9.00">coin</text>
</g>
<g id="clust12" class="cluster">
<title>cluster_src/presentation/coinList</title>
<path fill="#ffffff" stroke="black" stroke-width="2" d="M319.5,-304C319.5,-304 483,-304 483,-304 489,-304 495,-310 495,-316 495,-316 495,-344 495,-344 495,-350 489,-356 483,-356 483,-356 319.5,-356 319.5,-356 313.5,-356 307.5,-350 307.5,-344 307.5,-344 307.5,-316 307.5,-316 307.5,-310 313.5,-304 319.5,-304"/>
<text text-anchor="middle" x="401.25" y="-344.8" font-family="Helvetica,sans-Serif" font-weight="bold" font-size="9.00">coinList</text>
</g>
<g id="clust13" class="cluster">
<title>cluster_src/presentation/hook</title>
<path fill="#ffffff" stroke="black" stroke-width="2" d="M420.5,-364C420.5,-364 466.5,-364 466.5,-364 472.5,-364 478.5,-370 478.5,-376 478.5,-376 478.5,-404 478.5,-404 478.5,-410 472.5,-416 466.5,-416 466.5,-416 420.5,-416 420.5,-416 414.5,-416 408.5,-410 408.5,-404 408.5,-404 408.5,-376 408.5,-376 408.5,-370 414.5,-364 420.5,-364"/>
<text text-anchor="middle" x="443.5" y="-404.8" font-family="Helvetica,sans-Serif" font-weight="bold" font-size="9.00">hook</text>
</g>
<!-- src/data/dataSource/dataSource.ts -->
<g id="node1" class="node">
<title>src/data/dataSource/dataSource.ts</title>
<g id="a_node1"><a xlink:href="src/data/dataSource/dataSource.ts" xlink:title="dataSource.ts">
<path fill="#ddfeff" stroke="black" d="M699,-124C699,-124 638,-124 638,-124 635,-124 632,-121 632,-118 632,-118 632,-112 632,-112 632,-109 635,-106 638,-106 638,-106 699,-106 699,-106 702,-106 705,-109 705,-112 705,-112 705,-118 705,-118 705,-121 702,-124 699,-124"/>
<text text-anchor="start" x="640" y="-112.8" font-family="Helvetica,sans-Serif" font-size="9.00">dataSource.ts</text>
</a>
</g>
</g>
<!-- src/domain/model/index.ts -->
<g id="node2" class="node">
<title>src/domain/model/index.ts</title>
<g id="a_node2"><a xlink:href="src/domain/model/index.ts" xlink:title="index.ts">
<path fill="#ddfeff" stroke="black" d="M785,-236C785,-236 743,-236 743,-236 740,-236 737,-233 737,-230 737,-230 737,-224 737,-224 737,-221 740,-218 743,-218 743,-218 785,-218 785,-218 788,-218 791,-221 791,-224 791,-224 791,-230 791,-230 791,-233 788,-236 785,-236"/>
<text text-anchor="start" x="748" y="-224.8" font-family="Helvetica,sans-Serif" font-size="9.00">index.ts</text>
</a>
</g>
</g>
<!-- src/data/dataSource/dataSource.ts&#45;&gt;src/domain/model/index.ts -->
<g id="edge1" class="edge">
<title>src/data/dataSource/dataSource.ts&#45;&gt;src/domain/model/index.ts</title>
<path fill="none" stroke="#000000" stroke-width="2" stroke-opacity="0.200000" d="M701.67,-124.47C708.64,-127.62 715.55,-131.73 721,-137 741.65,-156.98 753.21,-189.07 758.77,-209.05"/>
<polygon fill="#000000" fill-opacity="0.200000" stroke="#000000" stroke-width="2" stroke-opacity="0.200000" points="756.67,-209.32 760.21,-214.61 760.73,-208.27 756.67,-209.32"/>
</g>
<!-- src/data/dataSource/index.ts -->
<g id="node3" class="node">
<title>src/data/dataSource/index.ts</title>
<g id="a_node3"><a xlink:href="src/data/dataSource/index.ts" xlink:title="index.ts">
<path fill="#ddfeff" stroke="black" d="M464.5,-117C464.5,-117 422.5,-117 422.5,-117 419.5,-117 416.5,-114 416.5,-111 416.5,-111 416.5,-105 416.5,-105 416.5,-102 419.5,-99 422.5,-99 422.5,-99 464.5,-99 464.5,-99 467.5,-99 470.5,-102 470.5,-105 470.5,-105 470.5,-111 470.5,-111 470.5,-114 467.5,-117 464.5,-117"/>
<text text-anchor="start" x="427.5" y="-105.8" font-family="Helvetica,sans-Serif" font-size="9.00">index.ts</text>
</a>
</g>
</g>
<!-- src/data/dataSource/index.ts&#45;&gt;src/data/dataSource/dataSource.ts -->
<g id="edge2" class="edge">
<title>src/data/dataSource/index.ts&#45;&gt;src/data/dataSource/dataSource.ts</title>
<path fill="none" stroke="#000000" stroke-width="2" stroke-opacity="0.200000" d="M470.98,-103.59C505.32,-98.61 566.97,-92.14 619,-100 623.74,-100.72 628.65,-101.8 633.45,-103.08"/>
<polygon fill="#000000" fill-opacity="0.200000" stroke="#000000" stroke-width="2" stroke-opacity="0.200000" points="632.65,-105.03 639,-104.68 633.82,-101 632.65,-105.03"/>
</g>
<!-- src/data/dataSource/onMemorySourceImpl.ts -->
<g id="node4" class="node">
<title>src/data/dataSource/onMemorySourceImpl.ts</title>
<g id="a_node4"><a xlink:href="src/data/dataSource/onMemorySourceImpl.ts" xlink:title="onMemorySourceImpl.ts">
<path fill="#ddfeff" stroke="black" d="M613,-124C613,-124 509,-124 509,-124 506,-124 503,-121 503,-118 503,-118 503,-112 503,-112 503,-109 506,-106 509,-106 509,-106 613,-106 613,-106 616,-106 619,-109 619,-112 619,-112 619,-118 619,-118 619,-121 616,-124 613,-124"/>
<text text-anchor="start" x="511" y="-112.8" font-family="Helvetica,sans-Serif" font-size="9.00">onMemorySourceImpl.ts</text>
</a>
</g>
</g>
<!-- src/data/dataSource/index.ts&#45;&gt;src/data/dataSource/onMemorySourceImpl.ts -->
<g id="edge3" class="edge">
<title>src/data/dataSource/index.ts&#45;&gt;src/data/dataSource/onMemorySourceImpl.ts</title>
<path fill="none" stroke="#000000" stroke-width="2" stroke-opacity="0.200000" d="M471,-109.61C477.94,-110.03 485.75,-110.5 493.78,-110.99"/>
<polygon fill="#000000" fill-opacity="0.200000" stroke="#000000" stroke-width="2" stroke-opacity="0.200000" points="493.42,-113.07 499.53,-111.34 493.67,-108.88 493.42,-113.07"/>
</g>
<!-- src/data/dataSource/onMemorySourceImpl.ts&#45;&gt;src/data/dataSource/dataSource.ts -->
<g id="edge5" class="edge">
<title>src/data/dataSource/onMemorySourceImpl.ts&#45;&gt;src/data/dataSource/dataSource.ts</title>
<path fill="none" stroke="#000000" stroke-width="2" stroke-opacity="0.200000" d="M619.38,-115C620.55,-115 621.72,-115 622.88,-115"/>
<polygon fill="#000000" fill-opacity="0.200000" stroke="#000000" stroke-width="2" stroke-opacity="0.200000" points="622.6,-117.1 628.6,-115 622.6,-112.9 622.6,-117.1"/>
</g>
<!-- src/data/dataSource/onMemorySourceImpl.ts&#45;&gt;src/domain/model/index.ts -->
<g id="edge4" class="edge">
<title>src/data/dataSource/onMemorySourceImpl.ts&#45;&gt;src/domain/model/index.ts</title>
<path fill="none" stroke="#000000" stroke-width="2" stroke-opacity="0.200000" d="M602.94,-124.47C648.44,-135.11 716.19,-151.39 721,-155 739.35,-168.79 751.08,-193.14 757.36,-209.66"/>
<polygon fill="#000000" fill-opacity="0.200000" stroke="#000000" stroke-width="2" stroke-opacity="0.200000" points="755.29,-210.11 759.28,-215.07 759.25,-208.71 755.29,-210.11"/>
</g>
<!-- src/data/index.ts -->
<g id="node5" class="node">
<title>src/data/index.ts</title>
<g id="a_node5"><a xlink:href="src/data/index.ts" xlink:title="index.ts">
<path fill="#ddfeff" stroke="black" d="M204,-102C204,-102 162,-102 162,-102 159,-102 156,-99 156,-96 156,-96 156,-90 156,-90 156,-87 159,-84 162,-84 162,-84 204,-84 204,-84 207,-84 210,-87 210,-90 210,-90 210,-96 210,-96 210,-99 207,-102 204,-102"/>
<text text-anchor="start" x="167" y="-90.8" font-family="Helvetica,sans-Serif" font-size="9.00">index.ts</text>
</a>
</g>
</g>
<!-- src/data/index.ts&#45;&gt;src/data/dataSource/index.ts -->
<g id="edge6" class="edge">
<title>src/data/index.ts&#45;&gt;src/data/dataSource/index.ts</title>
<path fill="none" stroke="#000000" stroke-width="2" stroke-opacity="0.200000" d="M210.41,-91.22C250.05,-89.01 327.19,-86.48 392,-95 397.06,-95.67 402.34,-96.67 407.5,-97.83"/>
<polygon fill="#000000" fill-opacity="0.200000" stroke="#000000" stroke-width="2" stroke-opacity="0.200000" points="406.74,-99.8 413.06,-99.18 407.73,-95.72 406.74,-99.8"/>
</g>
<!-- src/data/repository/index.ts -->
<g id="node6" class="node">
<title>src/data/repository/index.ts</title>
<g id="a_node6"><a xlink:href="src/data/repository/index.ts" xlink:title="index.ts">
<path fill="#ddfeff" stroke="black" d="M282,-124C282,-124 240,-124 240,-124 237,-124 234,-121 234,-118 234,-118 234,-112 234,-112 234,-109 237,-106 240,-106 240,-106 282,-106 282,-106 285,-106 288,-109 288,-112 288,-112 288,-118 288,-118 288,-121 285,-124 282,-124"/>
<text text-anchor="start" x="245" y="-112.8" font-family="Helvetica,sans-Serif" font-size="9.00">index.ts</text>
</a>
</g>
</g>
<!-- src/data/index.ts&#45;&gt;src/data/repository/index.ts -->
<g id="edge7" class="edge">
<title>src/data/index.ts&#45;&gt;src/data/repository/index.ts</title>
<path fill="none" stroke="#000000" stroke-width="2" stroke-opacity="0.200000" d="M210.15,-100.57C215,-101.97 220.12,-103.46 225.17,-104.92"/>
<polygon fill="#000000" fill-opacity="0.200000" stroke="#000000" stroke-width="2" stroke-opacity="0.200000" points="224.28,-106.85 230.63,-106.5 225.45,-102.81 224.28,-106.85"/>
</g>
<!-- src/data/repository/repositoryImpl.ts -->
<g id="node7" class="node">
<title>src/data/repository/repositoryImpl.ts</title>
<g id="a_node7"><a xlink:href="src/data/repository/repositoryImpl.ts" xlink:title="repositoryImpl.ts">
<path fill="#ddfeff" stroke="black" d="M378,-124C378,-124 307,-124 307,-124 304,-124 301,-121 301,-118 301,-118 301,-112 301,-112 301,-109 304,-106 307,-106 307,-106 378,-106 378,-106 381,-106 384,-109 384,-112 384,-112 384,-118 384,-118 384,-121 381,-124 378,-124"/>
<text text-anchor="start" x="309" y="-112.8" font-family="Helvetica,sans-Serif" font-size="9.00">repositoryImpl.ts</text>
</a>
</g>
</g>
<!-- src/data/repository/index.ts&#45;&gt;src/data/repository/repositoryImpl.ts -->
<g id="edge8" class="edge">
<title>src/data/repository/index.ts&#45;&gt;src/data/repository/repositoryImpl.ts</title>
<path fill="none" stroke="#000000" stroke-width="2" stroke-opacity="0.200000" d="M288.47,-115C289.56,-115 290.67,-115 291.79,-115"/>
<polygon fill="#000000" fill-opacity="0.200000" stroke="#000000" stroke-width="2" stroke-opacity="0.200000" points="291.5,-117.1 297.5,-115 291.5,-112.9 291.5,-117.1"/>
</g>
<!-- src/data/repository/repositoryImpl.ts&#45;&gt;src/domain/model/index.ts -->
<g id="edge9" class="edge">
<title>src/data/repository/repositoryImpl.ts&#45;&gt;src/domain/model/index.ts</title>
<path fill="none" stroke="#000000" stroke-width="2" stroke-opacity="0.200000" d="M353.41,-124.16C364.03,-133.34 381.83,-146.96 400,-153 446.24,-168.38 571.5,-153.15 619,-164 663.55,-174.18 711.44,-198 739.23,-213.26"/>
<polygon fill="#000000" fill-opacity="0.200000" stroke="#000000" stroke-width="2" stroke-opacity="0.200000" points="737.94,-214.95 744.21,-216.03 739.99,-211.28 737.94,-214.95"/>
</g>
<!-- src/data/repository/repositoryImpl.ts&#45;&gt;src/data/dataSource/index.ts -->
<g id="edge11" class="edge">
<title>src/data/repository/repositoryImpl.ts&#45;&gt;src/data/dataSource/index.ts</title>
<path fill="none" stroke="#000000" stroke-width="2" stroke-opacity="0.200000" d="M384.34,-112.11C392.07,-111.57 400.1,-111 407.62,-110.47"/>
<polygon fill="#000000" fill-opacity="0.200000" stroke="#000000" stroke-width="2" stroke-opacity="0.200000" points="407.33,-112.59 413.17,-110.07 407.03,-108.4 407.33,-112.59"/>
</g>
<!-- src/domain/repository/index.ts -->
<g id="node8" class="node">
<title>src/domain/repository/index.ts</title>
<g id="a_node8"><a xlink:href="src/domain/repository/index.ts" xlink:title="index.ts">
<path fill="#ddfeff" stroke="black" d="M689.5,-236C689.5,-236 647.5,-236 647.5,-236 644.5,-236 641.5,-233 641.5,-230 641.5,-230 641.5,-224 641.5,-224 641.5,-221 644.5,-218 647.5,-218 647.5,-218 689.5,-218 689.5,-218 692.5,-218 695.5,-221 695.5,-224 695.5,-224 695.5,-230 695.5,-230 695.5,-233 692.5,-236 689.5,-236"/>
<text text-anchor="start" x="652.5" y="-224.8" font-family="Helvetica,sans-Serif" font-size="9.00">index.ts</text>
</a>
</g>
</g>
<!-- src/data/repository/repositoryImpl.ts&#45;&gt;src/domain/repository/index.ts -->
<g id="edge10" class="edge">
<title>src/data/repository/repositoryImpl.ts&#45;&gt;src/domain/repository/index.ts</title>
<path fill="none" stroke="#000000" stroke-width="2" stroke-opacity="0.200000" d="M351.13,-124.42C361.04,-135.86 379.49,-154.66 400,-163 490.37,-199.76 530.3,-137.38 619,-178 634.39,-185.05 647.57,-199.25 656.29,-210.56"/>
<polygon fill="#000000" fill-opacity="0.200000" stroke="#000000" stroke-width="2" stroke-opacity="0.200000" points="654.56,-211.76 659.8,-215.36 657.95,-209.28 654.56,-211.76"/>
</g>
<!-- src/domain/repository/index.ts&#45;&gt;src/domain/model/index.ts -->
<g id="edge12" class="edge">
<title>src/domain/repository/index.ts&#45;&gt;src/domain/model/index.ts</title>
<path fill="none" stroke="#000000" stroke-width="2" stroke-opacity="0.200000" d="M695.54,-227C705.59,-227 717.24,-227 728,-227"/>
<polygon fill="#000000" fill-opacity="0.200000" stroke="#000000" stroke-width="2" stroke-opacity="0.200000" points="727.74,-229.1 733.74,-227 727.74,-224.9 727.74,-229.1"/>
</g>
<!-- src/domain/useCase/index.ts -->
<g id="node9" class="node">
<title>src/domain/useCase/index.ts</title>
<g id="a_node9"><a xlink:href="src/domain/useCase/index.ts" xlink:title="index.ts">
<path fill="#ddfeff" stroke="black" d="M582,-236C582,-236 540,-236 540,-236 537,-236 534,-233 534,-230 534,-230 534,-224 534,-224 534,-221 537,-218 540,-218 540,-218 582,-218 582,-218 585,-218 588,-221 588,-224 588,-224 588,-230 588,-230 588,-233 585,-236 582,-236"/>
<text text-anchor="start" x="545" y="-224.8" font-family="Helvetica,sans-Serif" font-size="9.00">index.ts</text>
</a>
</g>
</g>
<!-- src/domain/useCase/index.ts&#45;&gt;src/domain/repository/index.ts -->
<g id="edge13" class="edge">
<title>src/domain/useCase/index.ts&#45;&gt;src/domain/repository/index.ts</title>
<path fill="none" stroke="#000000" stroke-width="2" stroke-opacity="0.200000" d="M588.35,-227C601.69,-227 618.07,-227 632.46,-227"/>
<polygon fill="#000000" fill-opacity="0.200000" stroke="#000000" stroke-width="2" stroke-opacity="0.200000" points="632.09,-229.1 638.09,-227 632.09,-224.9 632.09,-229.1"/>
</g>
<!-- src/index.tsx -->
<g id="node10" class="node">
<title>src/index.tsx</title>
<g id="a_node10"><a xlink:href="src/index.tsx" xlink:title="index.tsx">
<path fill="#bbfeff" stroke="black" d="M64,-42C64,-42 22,-42 22,-42 19,-42 16,-39 16,-36 16,-36 16,-30 16,-30 16,-27 19,-24 22,-24 22,-24 64,-24 64,-24 67,-24 70,-27 70,-30 70,-30 70,-36 70,-36 70,-39 67,-42 64,-42"/>
<text text-anchor="start" x="24.5" y="-30.8" font-family="Helvetica,sans-Serif" font-size="9.00">index.tsx</text>
</a>
</g>
</g>
<!-- src/main/app.tsx -->
<g id="node11" class="node">
<title>src/main/app.tsx</title>
<g id="a_node11"><a xlink:href="src/main/app.tsx" xlink:title="app.tsx">
<path fill="#bbfeff" stroke="black" d="M134,-42C134,-42 92,-42 92,-42 89,-42 86,-39 86,-36 86,-36 86,-30 86,-30 86,-27 89,-24 92,-24 92,-24 134,-24 134,-24 137,-24 140,-27 140,-30 140,-30 140,-36 140,-36 140,-39 137,-42 134,-42"/>
<text text-anchor="start" x="98" y="-30.8" font-family="Helvetica,sans-Serif" font-size="9.00">app.tsx</text>
</a>
</g>
</g>
<!-- src/index.tsx&#45;&gt;src/main/app.tsx -->
<g id="edge14" class="edge">
<title>src/index.tsx&#45;&gt;src/main/app.tsx</title>
<path fill="none" stroke="#000000" stroke-width="2" stroke-opacity="0.200000" d="M70.49,-33C72.7,-33 74.97,-33 77.24,-33"/>
<polygon fill="#000000" fill-opacity="0.200000" stroke="#000000" stroke-width="2" stroke-opacity="0.200000" points="76.9,-35.1 82.9,-33 76.9,-30.9 76.9,-35.1"/>
</g>
<!-- src/main/app.tsx&#45;&gt;src/data/index.ts -->
<g id="edge17" class="edge">
<title>src/main/app.tsx&#45;&gt;src/data/index.ts</title>
<path fill="none" stroke="#000000" stroke-width="2" stroke-opacity="0.200000" d="M121.21,-42.39C127.71,-50.5 137.77,-62.25 148,-71 151.09,-73.64 154.52,-76.21 157.97,-78.61"/>
<polygon fill="#000000" fill-opacity="0.200000" stroke="#000000" stroke-width="2" stroke-opacity="0.200000" points="156.77,-80.33 162.93,-81.88 159.08,-76.82 156.77,-80.33"/>
</g>
<!-- src/presentation/index.tsx -->
<g id="node12" class="node">
<title>src/presentation/index.tsx</title>
<g id="a_node12"><a xlink:href="src/presentation/index.tsx" xlink:title="index.tsx">
<path fill="#bbfeff" stroke="black" d="M282,-326C282,-326 240,-326 240,-326 237,-326 234,-323 234,-320 234,-320 234,-314 234,-314 234,-311 237,-308 240,-308 240,-308 282,-308 282,-308 285,-308 288,-311 288,-314 288,-314 288,-320 288,-320 288,-323 285,-326 282,-326"/>
<text text-anchor="start" x="242.5" y="-314.8" font-family="Helvetica,sans-Serif" font-size="9.00">index.tsx</text>
</a>
</g>
</g>
<!-- src/main/app.tsx&#45;&gt;src/presentation/index.tsx -->
<g id="edge15" class="edge">
<title>src/main/app.tsx&#45;&gt;src/presentation/index.tsx</title>
<path fill="none" stroke="#000000" stroke-width="2" stroke-opacity="0.200000" d="M114.72,-42.37C116.85,-66.29 124.54,-131.08 148,-179 172.68,-229.41 218.83,-277.85 243.48,-301.68"/>
<polygon fill="#000000" fill-opacity="0.200000" stroke="#000000" stroke-width="2" stroke-opacity="0.200000" points="241.85,-303.02 247.64,-305.64 244.74,-299.98 241.85,-303.02"/>
</g>
<!-- src/main/style.css -->
<g id="node13" class="node">
<title>src/main/style.css</title>
<g id="a_node13"><a xlink:href="src/main/style.css" xlink:title="style.css">
<path fill="#ffffcc" stroke="black" d="M204,-42C204,-42 162,-42 162,-42 159,-42 156,-39 156,-36 156,-36 156,-30 156,-30 156,-27 159,-24 162,-24 162,-24 204,-24 204,-24 207,-24 210,-27 210,-30 210,-30 210,-36 210,-36 210,-39 207,-42 204,-42"/>
<text text-anchor="start" x="165.5" y="-30.8" font-family="Helvetica,sans-Serif" font-size="9.00">style.css</text>
</a>
</g>
</g>
<!-- src/main/app.tsx&#45;&gt;src/main/style.css -->
<g id="edge16" class="edge">
<title>src/main/app.tsx&#45;&gt;src/main/style.css</title>
<path fill="none" stroke="#000000" stroke-width="2" stroke-opacity="0.200000" d="M140.49,-33C142.7,-33 144.97,-33 147.24,-33"/>
<polygon fill="#000000" fill-opacity="0.200000" stroke="#000000" stroke-width="2" stroke-opacity="0.200000" points="146.9,-35.1 152.9,-33 146.9,-30.9 146.9,-35.1"/>
</g>
<!-- src/presentation/coinList/index.tsx -->
<g id="node17" class="node">
<title>src/presentation/coinList/index.tsx</title>
<g id="a_node17"><a xlink:href="src/presentation/coinList/index.tsx" xlink:title="index.tsx">
<path fill="#bbfeff" stroke="black" d="M363.5,-330C363.5,-330 321.5,-330 321.5,-330 318.5,-330 315.5,-327 315.5,-324 315.5,-324 315.5,-318 315.5,-318 315.5,-315 318.5,-312 321.5,-312 321.5,-312 363.5,-312 363.5,-312 366.5,-312 369.5,-315 369.5,-318 369.5,-318 369.5,-324 369.5,-324 369.5,-327 366.5,-330 363.5,-330"/>
<text text-anchor="start" x="324" y="-318.8" font-family="Helvetica,sans-Serif" font-size="9.00">index.tsx</text>
</a>
</g>
</g>
<!-- src/presentation/index.tsx&#45;&gt;src/presentation/coinList/index.tsx -->
<g id="edge27" class="edge">
<title>src/presentation/index.tsx&#45;&gt;src/presentation/coinList/index.tsx</title>
<path fill="none" stroke="#000000" stroke-width="2" stroke-opacity="0.200000" d="M288.47,-318.33C294.24,-318.62 300.43,-318.93 306.47,-319.24"/>
<polygon fill="#000000" fill-opacity="0.200000" stroke="#000000" stroke-width="2" stroke-opacity="0.200000" points="306.02,-321.32 312.12,-319.52 306.23,-317.12 306.02,-321.32"/>
</g>
<!-- src/presentation/coin/coin.styles.tsx -->
<g id="node14" class="node">
<title>src/presentation/coin/coin.styles.tsx</title>
<g id="a_node14"><a xlink:href="src/presentation/coin/coin.styles.tsx" xlink:title="coin.styles.tsx">
<path fill="#bbfeff" stroke="black" d="M591.5,-450C591.5,-450 530.5,-450 530.5,-450 527.5,-450 524.5,-447 524.5,-444 524.5,-444 524.5,-438 524.5,-438 524.5,-435 527.5,-432 530.5,-432 530.5,-432 591.5,-432 591.5,-432 594.5,-432 597.5,-435 597.5,-438 597.5,-438 597.5,-444 597.5,-444 597.5,-447 594.5,-450 591.5,-450"/>
<text text-anchor="start" x="532.5" y="-438.8" font-family="Helvetica,sans-Serif" font-size="9.00">coin.styles.tsx</text>
</a>
</g>
</g>
<!-- src/presentation/coin/index.tsx -->
<g id="node15" class="node">
<title>src/presentation/coin/index.tsx</title>
<g id="a_node15"><a xlink:href="src/presentation/coin/index.tsx" xlink:title="index.tsx">
<path fill="#bbfeff" stroke="black" d="M464.5,-450C464.5,-450 422.5,-450 422.5,-450 419.5,-450 416.5,-447 416.5,-444 416.5,-444 416.5,-438 416.5,-438 416.5,-435 419.5,-432 422.5,-432 422.5,-432 464.5,-432 464.5,-432 467.5,-432 470.5,-435 470.5,-438 470.5,-438 470.5,-444 470.5,-444 470.5,-447 467.5,-450 464.5,-450"/>
<text text-anchor="start" x="425" y="-438.8" font-family="Helvetica,sans-Serif" font-size="9.00">index.tsx</text>
</a>
</g>
</g>
<!-- src/presentation/coin/index.tsx&#45;&gt;src/domain/model/index.ts -->
<g id="edge19" class="edge">
<title>src/presentation/coin/index.tsx&#45;&gt;src/domain/model/index.ts</title>
<path fill="none" stroke="#000000" stroke-width="2" stroke-opacity="0.200000" d="M452.43,-450.46C462.72,-461.9 481.86,-480.56 503,-488 551.63,-505.12 569.81,-503.43 619,-488 671.7,-471.46 690.26,-462.89 721,-417 757.6,-362.35 762.82,-280.93 763.22,-245.07"/>
<polygon fill="#000000" fill-opacity="0.200000" stroke="#000000" stroke-width="2" stroke-opacity="0.200000" points="765.32,-245.25 763.23,-239.25 761.12,-245.25 765.32,-245.25"/>
</g>
<!-- src/presentation/coin/index.tsx&#45;&gt;src/presentation/coin/coin.styles.tsx -->
<g id="edge18" class="edge">
<title>src/presentation/coin/index.tsx&#45;&gt;src/presentation/coin/coin.styles.tsx</title>
<path fill="none" stroke="#000000" stroke-width="2" stroke-opacity="0.200000" d="M471,-441C484.25,-441 500.64,-441 515.73,-441"/>
<polygon fill="#000000" fill-opacity="0.200000" stroke="#000000" stroke-width="2" stroke-opacity="0.200000" points="515.4,-443.1 521.4,-441 515.4,-438.9 515.4,-443.1"/>
</g>
<!-- src/presentation/coinList/coinList.styles.tsx -->
<g id="node16" class="node">
<title>src/presentation/coinList/coinList.styles.tsx</title>
<g id="a_node16"><a xlink:href="src/presentation/coinList/coinList.styles.tsx" xlink:title="coinList.styles.tsx">
<path fill="#bbfeff" stroke="black" d="M481,-330C481,-330 406,-330 406,-330 403,-330 400,-327 400,-324 400,-324 400,-318 400,-318 400,-315 403,-312 406,-312 406,-312 481,-312 481,-312 484,-312 487,-315 487,-318 487,-318 487,-324 487,-324 487,-327 484,-330 481,-330"/>
<text text-anchor="start" x="408" y="-318.8" font-family="Helvetica,sans-Serif" font-size="9.00">coinList.styles.tsx</text>
</a>
</g>
</g>
<!-- src/presentation/coinList/index.tsx&#45;&gt;src/domain/repository/index.ts -->
<g id="edge22" class="edge">
<title>src/presentation/coinList/index.tsx&#45;&gt;src/domain/repository/index.ts</title>
<path fill="none" stroke="#000000" stroke-width="2" stroke-opacity="0.200000" d="M350.89,-311.84C371.64,-286.95 433.5,-218.29 503,-194 551.67,-176.99 569.73,-178.83 619,-194 630.71,-197.61 642.13,-205.11 650.94,-212.05"/>
<polygon fill="#000000" fill-opacity="0.200000" stroke="#000000" stroke-width="2" stroke-opacity="0.200000" points="649.39,-213.5 655.35,-215.72 652.08,-210.27 649.39,-213.5"/>
</g>
<!-- src/presentation/coinList/index.tsx&#45;&gt;src/presentation/coin/index.tsx -->
<g id="edge23" class="edge">
<title>src/presentation/coinList/index.tsx&#45;&gt;src/presentation/coin/index.tsx</title>
<path fill="none" stroke="#000000" stroke-width="2" stroke-opacity="0.200000" d="M346.77,-330.24C353.84,-349.09 372.17,-392.41 400,-419 403.22,-422.08 406.96,-424.83 410.85,-427.26"/>
<polygon fill="#000000" fill-opacity="0.200000" stroke="#000000" stroke-width="2" stroke-opacity="0.200000" points="409.55,-428.94 415.81,-430.05 411.61,-425.28 409.55,-428.94"/>
</g>
<!-- src/presentation/coinList/index.tsx&#45;&gt;src/presentation/coinList/coinList.styles.tsx -->
<g id="edge21" class="edge">
<title>src/presentation/coinList/index.tsx&#45;&gt;src/presentation/coinList/coinList.styles.tsx</title>
<path fill="none" stroke="#000000" stroke-width="2" stroke-opacity="0.200000" d="M369.77,-321C376.36,-321 383.66,-321 391.01,-321"/>
<polygon fill="#000000" fill-opacity="0.200000" stroke="#000000" stroke-width="2" stroke-opacity="0.200000" points="390.61,-323.1 396.61,-321 390.61,-318.9 390.61,-323.1"/>
</g>
<!-- src/presentation/hook/index.tsx -->
<g id="node18" class="node">
<title>src/presentation/hook/index.tsx</title>
<g id="a_node18"><a xlink:href="src/presentation/hook/index.tsx" xlink:title="index.tsx">
<path fill="#bbfeff" stroke="black" d="M464.5,-390C464.5,-390 422.5,-390 422.5,-390 419.5,-390 416.5,-387 416.5,-384 416.5,-384 416.5,-378 416.5,-378 416.5,-375 419.5,-372 422.5,-372 422.5,-372 464.5,-372 464.5,-372 467.5,-372 470.5,-375 470.5,-378 470.5,-378 470.5,-384 470.5,-384 470.5,-387 467.5,-390 464.5,-390"/>
<text text-anchor="start" x="425" y="-378.8" font-family="Helvetica,sans-Serif" font-size="9.00">index.tsx</text>
</a>
</g>
</g>
<!-- src/presentation/coinList/index.tsx&#45;&gt;src/presentation/hook/index.tsx -->
<g id="edge20" class="edge">
<title>src/presentation/coinList/index.tsx&#45;&gt;src/presentation/hook/index.tsx</title>
<path fill="none" stroke="#000000" stroke-width="2" stroke-opacity="0.200000" d="M356.24,-330.18C367.52,-338.16 384.54,-349.84 400,-359 404.88,-361.89 410.18,-364.8 415.32,-367.52"/>
<polygon fill="#000000" fill-opacity="0.200000" stroke="#000000" stroke-width="2" stroke-opacity="0.200000" points="414.22,-369.32 420.52,-370.21 416.15,-365.59 414.22,-369.32"/>
</g>
<!-- src/presentation/hook/index.tsx&#45;&gt;src/domain/model/index.ts -->
<g id="edge25" class="edge">
<title>src/presentation/hook/index.tsx&#45;&gt;src/domain/model/index.ts</title>
<path fill="none" stroke="#000000" stroke-width="2" stroke-opacity="0.200000" d="M462.41,-390.42C473.67,-397.33 487.46,-407.79 495,-421 507.91,-443.6 483.38,-461.9 503,-479 522.43,-495.94 596.7,-491.94 619,-479 709.31,-426.59 747.77,-293.91 759.15,-245.25"/>
<polygon fill="#000000" fill-opacity="0.200000" stroke="#000000" stroke-width="2" stroke-opacity="0.200000" points="761.19,-245.71 760.46,-239.4 757.1,-244.79 761.19,-245.71"/>
</g>
<!-- src/presentation/hook/index.tsx&#45;&gt;src/domain/repository/index.ts -->
<g id="edge24" class="edge">
<title>src/presentation/hook/index.tsx&#45;&gt;src/domain/repository/index.ts</title>
<path fill="none" stroke="#000000" stroke-width="2" stroke-opacity="0.200000" d="M470.77,-375.59C479.94,-372.34 489.33,-367.17 495,-359 504.64,-345.1 490.73,-218.64 503,-207 521.7,-189.26 593.71,-201.99 619,-207 626.58,-208.5 634.46,-211.2 641.61,-214.14"/>
<polygon fill="#000000" fill-opacity="0.200000" stroke="#000000" stroke-width="2" stroke-opacity="0.200000" points="640.49,-215.95 646.83,-216.44 642.18,-212.1 640.49,-215.95"/>
</g>
<!-- src/presentation/hook/index.tsx&#45;&gt;src/domain/useCase/index.ts -->
<g id="edge26" class="edge">
<title>src/presentation/hook/index.tsx&#45;&gt;src/domain/useCase/index.ts</title>
<path fill="none" stroke="#000000" stroke-width="2" stroke-opacity="0.200000" d="M470.98,-373.49C479.41,-370.11 488.29,-365.4 495,-359 528.89,-326.66 547.58,-272.92 555.46,-245.03"/>
<polygon fill="#000000" fill-opacity="0.200000" stroke="#000000" stroke-width="2" stroke-opacity="0.200000" points="557.48,-245.59 557.01,-239.25 553.43,-244.5 557.48,-245.59"/>
</g>
</g>
</svg>
